<?xml version="1.0" encoding="utf-8"?>
<svg xmlns="http://www.w3.org/2000/svg" viewBox="126 92 260 308">
  <!-- center orange dot -->
  <path fill="#C56A2D" d=" M255.236877,271.616211 C247.438599,273.075745 239.032562,269.455841 234.999939,263.181244 C230.567947,256.285248 230.709595,248.376862 235.384872,241.689392 C239.898239,235.233536 247.766495,232.218597 255.525482,233.972015 C265.655640,236.261322 271.348877,242.835358 271.323273,252.213943 C271.294067,262.908234 266.253510,269.110901 255.236877,271.616211 z"/>
  <!-- top-right arm -->
  <path fill="#000000" d=" M325.839539,138.999756 C329.128815,135.899048 330.641785,139.247803 333.579681,140.430832 C327.059692,149.558899 320.822693,158.298370 314.577637,167.032120 C305.383331,179.890503 296.207703,192.762375 286.975067,205.593170 C282.601715,211.670914 278.059204,217.627167 273.704895,223.718246 C271.824280,226.348969 269.884827,225.682678 267.702606,224.330246 C265.020691,222.668152 266.492401,220.952576 267.650848,219.336563 C277.056702,206.215393 286.460144,193.092239 295.930298,180.017502 C305.789703,166.405426 315.722595,152.846619 325.839539,138.999756 z"/>
  <!-- bottom-right arm -->
  <path fill="#000000" d=" M280.596924,303.371246 C276.622528,297.996979 272.758636,292.982208 269.140533,287.795898 C267.741516,285.790527 265.247253,283.475586 268.782837,281.043182 C271.987610,278.838348 273.316315,281.564362 274.706757,283.469116 C290.905548,305.659912 307.035706,327.900818 323.215515,350.105530 C324.931549,352.460602 325.521729,354.268219 322.480743,356.227661 C319.668213,358.039917 318.363129,356.904083 316.910950,354.617035 C305.738770,337.022278 292.578644,320.833466 280.596924,303.371246 z"/>
  <!-- bottom-left arm -->
  <path fill="#000000" d=" M206.252838,305.246948 C212.589523,296.883240 218.663681,288.765381 224.835510,280.722504 C225.890549,279.347626 226.803513,277.371155 229.027252,277.673676 C230.507385,277.875092 232.001358,278.568298 232.734634,279.943451 C233.626648,281.616333 232.156479,282.740723 231.288498,283.872162 C220.765732,297.588745 210.173477,311.252106 199.673111,324.985779 C193.516022,333.038788 187.481583,341.185760 181.413071,349.306213 C179.887817,351.347198 178.442230,352.831116 175.737198,350.734833 C173.193069,348.763245 173.680786,347.036530 175.378952,344.867065 C185.626114,331.776154 195.814926,318.639526 206.252838,305.246948 z"/>
  <!-- left dot -->
  <path fill="#000000" d=" M166.272095,241.147797 C161.292053,246.240341 155.589203,247.323349 149.500809,244.952698 C144.392395,242.963623 141.918274,238.523026 141.430634,233.242386 C140.893997,227.431412 145.017456,221.396912 150.327087,219.508759 C155.792923,217.565094 163.152313,219.272568 166.469437,223.253998 C170.394318,227.964890 170.408905,234.933624 166.272095,241.147797 z"/>
  <!-- bottom-left dot -->
  <path fill="#000000" d=" M174.829300,373.758484 C168.666367,378.899780 161.095169,379.484131 155.766953,375.501953 C151.011002,371.947449 149.449371,364.581726 152.213531,358.741516 C155.462845,351.876221 163.078247,348.923584 169.798065,351.923645 C177.534927,355.377747 180.414871,362.472870 177.086502,370.024109 C176.553757,371.232758 175.751419,372.322601 174.829300,373.758484 z"/>
  <!-- right dot -->
  <path fill="#000000" d=" M365.811768,261.113220 C363.180023,266.857239 359.183746,269.564911 353.086670,269.393341 C347.639618,269.240082 343.445679,267.215424 340.689148,262.521973 C337.801666,257.605530 338.253204,252.112091 341.746857,247.602509 C345.144928,243.216293 351.746216,241.409088 357.582306,243.267349 C362.540497,244.846100 366.049896,249.344025 366.340027,254.794479 C366.444672,256.760010 366.103668,258.749268 365.811768,261.113220 z"/>
  <!-- top dot -->
  <path fill="#000000" d=" M329.201782,111.106903 C334.756775,107.467300 340.117371,106.237015 345.845215,109.847198 C352.393219,113.974281 354.423584,122.430710 350.234711,128.464554 C345.942963,134.646591 336.336426,136.254990 330.246552,131.811111 C324.229828,127.420631 322.961304,118.692253 327.496002,112.752571 C327.895538,112.229240 328.429871,111.808792 329.201782,111.106903 z"/>
  <!-- bottom-right dot -->
  <path fill="#000000" d=" M319.046051,368.548340 C322.110046,360.891693 326.201630,357.856995 332.832642,357.971283 C341.222229,358.115845 346.165771,362.859467 346.207794,370.805573 C346.250366,378.852844 341.288788,384.045746 333.352722,384.260101 C325.699219,384.466827 319.319824,378.827454 318.884460,371.442566 C318.835815,370.617157 318.941406,369.782654 319.046051,368.548340 z"/>
  <!-- horizontal connector (right) -->
  <path fill="#000000" d=" M313.908356,258.383850 C305.436432,258.037323 297.426971,258.377502 289.463928,257.417999 C287.506378,257.182129 285.798828,256.972687 285.797363,254.396011 C285.795959,251.871033 286.716217,250.287292 289.424988,249.950256 C293.629211,249.427170 297.703949,250.674286 301.860779,250.719315 C310.522797,250.813171 319.185699,250.860458 327.846313,251.027237 C330.493591,251.078232 333.343201,250.944885 333.306732,255.051941 C333.270996,259.075409 330.629059,259.114532 327.856598,259.022461 C323.367767,258.873474 318.882996,258.603485 313.908356,258.383850 z"/>
  <!-- horizontal connector (left) -->
  <path fill="#000000" d=" M184.780823,242.344879 C181.966446,241.646133 179.534927,241.103012 177.151382,240.397736 C175.350113,239.864761 172.753983,239.773132 173.690903,236.767090 C174.464630,234.284576 175.621979,232.242569 179.035721,233.131088 C191.708725,236.429626 204.417480,239.591553 217.122284,242.766861 C219.935501,243.469971 219.687469,245.336884 219.093811,247.416763 C218.423416,249.765503 217.129715,250.441071 214.618530,249.782211 C204.837509,247.215958 195.000488,244.863083 184.780823,242.344879 z"/>
</svg>
