<?xml version="1.0" encoding="utf-8"?>
<svg version="1.1" id="Layer_1" xmlns="http://www.w3.org/2000/svg" viewBox="0 0 992 448">
  <path fill="#C56A2D" opacity="1.000000" stroke="none" d=" M669.325928,292.578522 C660.590820,279.594696 662.543518,260.666992 673.560669,247.784683 C681.421143,238.593536 691.906128,233.943802 703.235291,231.442093 C715.559448,228.720673 728.032166,229.612961 740.391296,232.235260 C744.211121,233.045700 745.542236,234.783188 744.248901,238.492172 C743.866882,239.587418 743.559326,240.734421 743.416382,241.882446 C742.954468,245.591583 741.197327,246.646805 737.576416,245.389816 C729.267883,242.505554 720.753784,241.864624 711.986511,243.026932 C694.871582,245.295959 682.910461,260.816528 685.357483,277.962646 C686.510986,286.045654 693.062439,291.438904 703.180176,292.604431 C704.169678,292.718445 705.175110,292.709717 706.173706,292.727081 C718.304871,292.937927 720.905823,290.291321 720.611816,278.206177 C720.567932,276.400177 719.961060,275.340302 718.094299,275.214081 C717.097778,275.146759 716.059021,275.272552 715.108948,275.033875 C712.582275,274.399139 708.430908,276.480042 708.312500,271.569702 C708.156921,265.118622 710.059509,263.032959 715.680847,262.996429 C722.675232,262.950928 729.671082,263.073639 736.664856,262.996674 C740.544800,262.954010 742.546021,263.822510 741.569580,268.500977 C739.770081,277.123505 738.528320,285.863220 737.094543,294.560760 C736.659363,297.200470 735.729797,299.246307 732.782898,299.962097 C716.419434,303.936401 699.981384,305.309937 683.430115,301.293579 C677.976746,299.970245 673.295776,297.128326 669.325928,292.578522 z"/>
  <path fill="#C56A2D" opacity="1.000000" stroke="none" d=" M890.895508,275.735260 C889.584717,283.537323 888.222839,290.897827 887.233276,298.308075 C886.762390,301.834167 885.182556,303.473663 881.710083,303.042877 C876.829102,302.437378 871.386963,305.029083 867.163086,300.275299 C866.370544,299.383240 864.668152,300.706268 863.472778,301.203522 C856.295837,304.188873 848.768127,304.163483 841.352112,303.125488 C829.497131,301.466187 823.161926,290.407532 826.252625,277.319489 C829.396179,264.007477 838.043945,256.135345 851.091797,252.764755 C857.454285,251.121201 863.904663,250.688599 870.375977,251.716278 C874.524536,252.375061 876.075928,250.470642 876.601807,246.725632 C877.202515,242.447525 878.196777,238.223358 878.758362,233.941437 C879.292114,229.872467 880.992065,227.570724 885.478943,227.962982 C887.953674,228.179321 890.474609,228.061234 892.961792,227.898163 C897.117065,227.625763 898.736755,229.229324 897.986694,233.508438 C895.862732,245.626221 893.927002,257.777008 891.914490,269.914368 C891.615845,271.715454 891.303345,273.514282 890.895508,275.735260 M858.523865,263.794861 C849.294983,266.996643 845.002075,272.736908 845.014160,281.859222 C845.021301,287.222565 847.223083,290.249786 852.281982,291.851654 C861.279419,294.700623 870.024353,288.162354 871.772644,277.279144 C873.825317,264.501312 872.098083,262.602295 858.523865,263.794861 z"/>
  <path opacity="1.000000" stroke="none" d=" M652.304932,279.180847 C651.541321,285.218842 650.681213,290.805420 650.136780,296.422607 C649.670715,301.231354 647.597412,303.759033 642.464478,303.113403 C640.825500,302.907227 639.139526,303.072205 637.475098,303.071289 C634.550293,303.069702 631.745667,302.856018 631.163391,299.021423 C623.282898,301.998901 615.828796,304.831177 607.582764,303.612732 C592.701111,301.413849 586.328064,292.435852 589.202454,277.577484 C591.960205,263.322113 602.435242,254.033157 617.821716,251.693390 C623.188843,250.877228 628.434570,251.509186 633.722839,251.803329 C636.963989,251.983612 638.670349,250.863937 639.179688,247.551651 C639.937012,242.626282 641.088379,237.761475 641.844910,232.835999 C642.359863,229.483551 643.944214,228.038910 647.428894,227.859512 C661.150269,227.153107 661.200745,227.074738 658.967285,240.422348 C656.828003,253.207199 654.557922,265.970154 652.304932,279.180847 M635.629272,271.253906 C635.620544,268.538391 636.733704,265.365570 632.831543,264.209991 C625.891479,262.154816 619.306091,262.535248 613.573608,267.433472 C608.999329,271.342041 606.578003,280.725494 608.586365,286.358368 C609.531738,289.009949 611.348083,290.850464 614.152405,291.625153 C623.175415,294.117798 631.902527,289.015442 634.021912,279.920258 C634.623230,277.339935 635.012939,274.710297 635.629272,271.253906 z" fill="#000000"/>
  <path fill="#000000" opacity="1.000000" stroke="none" d=" M406.118774,303.186096 C404.191681,302.907928 402.712952,302.667084 401.232697,302.435913 C393.483765,301.225769 393.660736,301.198669 395.100525,293.695190 C395.990204,289.058502 397.638062,287.611877 402.467957,289.201599 C409.118896,291.390656 416.099731,292.216949 423.167389,291.857727 C426.556824,291.685455 429.801086,290.920471 432.746765,289.320435 C435.535858,287.805450 437.312225,285.270050 437.335999,282.049896 C437.360168,278.764893 434.931091,276.998352 432.201721,275.943665 C429.420013,274.868805 426.478790,274.210754 423.617615,273.336761 C419.802948,272.171600 415.873749,271.271057 412.211700,269.736694 C399.505737,264.413055 396.786713,250.794296 406.418915,240.845795 C412.364594,234.704865 420.095795,232.201767 428.282593,230.820724 C438.272888,229.135437 448.143250,229.612366 458.009583,231.992599 C462.091064,232.977234 463.234131,234.957138 461.907990,238.745865 C461.634979,239.525833 461.451538,240.357117 461.365692,241.179245 C460.938324,245.271118 459.137604,246.459534 454.995850,245.119308 C447.172241,242.587662 439.144348,241.359192 430.889008,243.111710 C428.706543,243.575012 426.726440,244.380920 424.984283,245.663620 C420.761414,248.772812 421.183990,254.341278 425.984100,256.480835 C429.149567,257.891815 432.624969,258.610077 435.966064,259.623718 C439.307373,260.637482 442.719635,261.457520 445.984528,262.674377 C451.950928,264.898010 457.365417,267.959320 458.212555,275.111969 C459.197510,283.428375 456.978149,290.712708 449.954651,295.846832 C443.304382,300.708130 435.566345,302.623047 427.501343,303.313049 C420.528290,303.909668 413.541382,304.044342 406.118774,303.186096 z"/>
  <path fill="#000000" opacity="1.000000" stroke="none" d=" M466.190521,267.442871 C475.556580,250.039261 501.300873,248.373276 513.295288,254.840668 C521.518860,259.274841 524.225159,271.053040 518.743347,278.678314 C516.661072,281.574707 513.731995,282.314453 510.429047,282.341003 C502.273315,282.406555 494.137146,283.359558 485.958557,282.753937 C484.368835,282.636169 481.998627,281.799042 481.356964,284.428131 C480.841919,286.538177 481.692230,288.356354 483.280731,289.806885 C485.477112,291.812439 488.137756,292.648773 491.044891,292.794891 C496.887695,293.088593 502.683960,292.906555 508.431305,291.569366 C510.637421,291.056091 513.491272,289.251465 514.800598,292.829651 C515.985352,296.067444 513.172302,301.185852 509.915955,302.020020 C504.888397,303.307861 499.698914,303.747681 494.564758,303.710083 C487.771271,303.660400 480.897980,303.712891 474.406128,300.978790 C464.190491,296.676300 460.287994,288.157715 463.191650,275.758087 C463.831635,273.025177 465.047791,270.427185 466.190521,267.442871 M487.114349,272.680817 C491.081909,272.681335 495.050171,272.637512 499.016815,272.697479 C501.761993,272.739014 503.981873,272.108398 504.527283,268.987915 C505.049774,265.998627 503.844727,263.870453 501.193207,262.465759 C495.451263,259.423859 486.438446,262.462036 483.685425,268.368103 C482.398041,271.130005 482.692200,272.882141 487.114349,272.680817 z"/>
  <path fill="#000000" opacity="1.000000" stroke="none" d=" M526.229126,276.677460 C528.906494,262.370697 539.229614,253.147690 553.965576,251.786713 C561.464294,251.094147 568.846802,251.187683 575.909973,254.651367 C584.680603,258.952393 585.952393,268.819305 583.685791,275.591370 C582.158875,280.153534 578.661255,282.371490 573.704529,282.324219 C565.388428,282.244904 557.070618,282.306030 548.753845,282.356171 C547.156494,282.365784 545.151123,281.881683 544.424377,283.904846 C543.692139,285.943390 544.367004,287.875397 545.955566,289.352936 C548.527161,291.744781 551.760132,292.529907 555.127319,292.748444 C560.794373,293.116241 566.415894,292.820190 571.984924,291.524200 C574.055054,291.042450 577.291504,289.366577 577.757446,292.734894 C578.188171,295.848267 578.671936,300.710907 574.336792,301.578796 C561.043274,304.240173 547.549988,305.613251 534.773071,299.437683 C525.248657,294.834106 524.917969,286.135406 526.229126,276.677460 M565.402283,272.315857 C568.815552,268.146423 568.303284,264.319000 564.047791,262.196106 C556.952148,258.656342 547.063599,263.951996 545.854309,272.554321 C552.152222,272.554321 558.380676,272.554321 565.402283,272.315857 z"/>
  <path fill="#C56A2D" opacity="1.000000" stroke="none" d=" M766.678345,295.552460 C765.513062,303.105286 765.513062,303.105286 758.573975,303.083618 C746.728027,303.046631 746.709351,303.043549 748.619324,291.508484 C750.520386,280.027466 752.603088,268.574158 754.310547,257.064850 C754.872559,253.276337 756.716064,251.875351 760.240112,251.924606 C761.905090,251.947876 763.571350,251.865463 765.236938,251.870224 C768.623291,251.879913 772.323730,251.331161 772.578064,256.973694 C778.541138,253.516281 783.982117,251.288727 790.193726,251.589691 C793.860596,251.767319 795.125793,252.962631 794.509583,256.847809 C793.187988,265.181152 793.387939,265.212830 785.216980,265.335297 C774.960266,265.488953 770.544006,269.570740 769.214294,279.850281 C768.552917,284.963684 767.600037,290.039398 766.678345,295.552460 z"/>
  <path fill="#C56A2D" opacity="1.000000" stroke="none" d=" M255.236877,271.616211 C247.438599,273.075745 239.032562,269.455841 234.999939,263.181244 C230.567947,256.285248 230.709595,248.376862 235.384872,241.689392 C239.898239,235.233536 247.766495,232.218597 255.525482,233.972015 C265.655640,236.261322 271.348877,242.835358 271.323273,252.213943 C271.294067,262.908234 266.253510,269.110901 255.236877,271.616211 z"/>
  <path fill="#C56A2D" opacity="1.000000" stroke="none" d=" M802.055298,257.297119 C802.542725,252.907471 804.931091,251.794998 808.668274,251.798538 C824.212952,251.813248 821.580750,251.493149 819.824890,264.224518 C818.281555,275.414764 816.073608,286.511902 814.342651,297.678589 C813.720398,301.692596 811.948975,303.242065 807.728882,303.138489 C791.840942,302.748413 794.341797,304.142395 796.617371,289.660736 C798.293579,278.993347 800.179443,268.358948 802.055298,257.297119 z"/>
  <path fill="#000000" opacity="1.000000" stroke="none" d=" M325.839539,138.999756 C329.128815,135.899048 330.641785,139.247803 333.579681,140.430832 C327.059692,149.558899 320.822693,158.298370 314.577637,167.032120 C305.383331,179.890503 296.207703,192.762375 286.975067,205.593170 C282.601715,211.670914 278.059204,217.627167 273.704895,223.718246 C271.824280,226.348969 269.884827,225.682678 267.702606,224.330246 C265.020691,222.668152 266.492401,220.952576 267.650848,219.336563 C277.056702,206.215393 286.460144,193.092239 295.930298,180.017502 C305.789703,166.405426 315.722595,152.846619 325.839539,138.999756 z"/>
  <path fill="#000000" opacity="1.000000" stroke="none" d=" M280.596924,303.371246 C276.622528,297.996979 272.758636,292.982208 269.140533,287.795898 C267.741516,285.790527 265.247253,283.475586 268.782837,281.043182 C271.987610,278.838348 273.316315,281.564362 274.706757,283.469116 C290.905548,305.659912 307.035706,327.900818 323.215515,350.105530 C324.931549,352.460602 325.521729,354.268219 322.480743,356.227661 C319.668213,358.039917 318.363129,356.904083 316.910950,354.617035 C305.738770,337.022278 292.578644,320.833466 280.596924,303.371246 z"/>
  <path fill="#000000" opacity="1.000000" stroke="none" d=" M206.252838,305.246948 C212.589523,296.883240 218.663681,288.765381 224.835510,280.722504 C225.890549,279.347626 226.803513,277.371155 229.027252,277.673676 C230.507385,277.875092 232.001358,278.568298 232.734634,279.943451 C233.626648,281.616333 232.156479,282.740723 231.288498,283.872162 C220.765732,297.588745 210.173477,311.252106 199.673111,324.985779 C193.516022,333.038788 187.481583,341.185760 181.413071,349.306213 C179.887817,351.347198 178.442230,352.831116 175.737198,350.734833 C173.193069,348.763245 173.680786,347.036530 175.378952,344.867065 C185.626114,331.776154 195.814926,318.639526 206.252838,305.246948 z"/>
  <path fill="#000000" opacity="1.000000" stroke="none" d=" M166.272095,241.147797 C161.292053,246.240341 155.589203,247.323349 149.500809,244.952698 C144.392395,242.963623 141.918274,238.523026 141.430634,233.242386 C140.893997,227.431412 145.017456,221.396912 150.327087,219.508759 C155.792923,217.565094 163.152313,219.272568 166.469437,223.253998 C170.394318,227.964890 170.408905,234.933624 166.272095,241.147797 z"/>
  <path fill="#000000" opacity="1.000000" stroke="none" d=" M174.829300,373.758484 C168.666367,378.899780 161.095169,379.484131 155.766953,375.501953 C151.011002,371.947449 149.449371,364.581726 152.213531,358.741516 C155.462845,351.876221 163.078247,348.923584 169.798065,351.923645 C177.534927,355.377747 180.414871,362.472870 177.086502,370.024109 C176.553757,371.232758 175.751419,372.322601 174.829300,373.758484 z"/>
  <path fill="#000000" opacity="1.000000" stroke="none" d=" M365.811768,261.113220 C363.180023,266.857239 359.183746,269.564911 353.086670,269.393341 C347.639618,269.240082 343.445679,267.215424 340.689148,262.521973 C337.801666,257.605530 338.253204,252.112091 341.746857,247.602509 C345.144928,243.216293 351.746216,241.409088 357.582306,243.267349 C362.540497,244.846100 366.049896,249.344025 366.340027,254.794479 C366.444672,256.760010 366.103668,258.749268 365.811768,261.113220 z"/>
  <path fill="#000000" opacity="1.000000" stroke="none" d=" M329.201782,111.106903 C334.756775,107.467300 340.117371,106.237015 345.845215,109.847198 C352.393219,113.974281 354.423584,122.430710 350.234711,128.464554 C345.942963,134.646591 336.336426,136.254990 330.246552,131.811111 C324.229828,127.420631 322.961304,118.692253 327.496002,112.752571 C327.895538,112.229240 328.429871,111.808792 329.201782,111.106903 z"/>
  <path fill="#000000" opacity="1.000000" stroke="none" d=" M319.046051,368.548340 C322.110046,360.891693 326.201630,357.856995 332.832642,357.971283 C341.222229,358.115845 346.165771,362.859467 346.207794,370.805573 C346.250366,378.852844 341.288788,384.045746 333.352722,384.260101 C325.699219,384.466827 319.319824,378.827454 318.884460,371.442566 C318.835815,370.617157 318.941406,369.782654 319.046051,368.548340 z"/>
  <path fill="#000000" opacity="1.000000" stroke="none" d=" M313.908356,258.383850 C305.436432,258.037323 297.426971,258.377502 289.463928,257.417999 C287.506378,257.182129 285.798828,256.972687 285.797363,254.396011 C285.795959,251.871033 286.716217,250.287292 289.424988,249.950256 C293.629211,249.427170 297.703949,250.674286 301.860779,250.719315 C310.522797,250.813171 319.185699,250.860458 327.846313,251.027237 C330.493591,251.078232 333.343201,250.944885 333.306732,255.051941 C333.270996,259.075409 330.629059,259.114532 327.856598,259.022461 C323.367767,258.873474 318.882996,258.603485 313.908356,258.383850 z"/>
  <path fill="#000000" opacity="1.000000" stroke="none" d=" M184.780823,242.344879 C181.966446,241.646133 179.534927,241.103012 177.151382,240.397736 C175.350113,239.864761 172.753983,239.773132 173.690903,236.767090 C174.464630,234.284576 175.621979,232.242569 179.035721,233.131088 C191.708725,236.429626 204.417480,239.591553 217.122284,242.766861 C219.935501,243.469971 219.687469,245.336884 219.093811,247.416763 C218.423416,249.765503 217.129715,250.441071 214.618530,249.782211 C204.837509,247.215958 195.000488,244.863083 184.780823,242.344879 z"/>
  <path fill="#C56A2D" opacity="1.000000" stroke="none" d=" M809.508911,230.996429 C813.616638,230.974075 817.279602,230.996964 820.942566,231.017059 C824.070068,231.034210 825.382935,232.409088 825.077637,235.697266 C824.357605,243.450928 823.708679,244.215652 815.854492,244.832626 C814.528259,244.936813 813.179993,245.062073 811.864502,244.938110 C809.370483,244.703094 806.259460,245.983032 804.828918,242.727753 C803.771301,240.321106 806.783081,232.444794 809.508911,230.996429 z"/>
</svg>